General
Complete name                    : D:\TOORENT FOR UPLOAD\Crash Unrated 2009 Hindi-English By RoYStaR\Crash Unrated 2009 Hindi-English By RoYStaR.m4v
Format                           : MPEG-4
Format profile                   : Base Media / Version 2
Codec ID                         : mp42
File size                        : 927 MiB
Duration                         : 1h 55mn
Overall bit rate                 : 1 127 Kbps
Encoded date                     : UTC 2011-07-11 13:48:23
Tagged date                      : UTC 2011-07-11 15:23:55
Writing application              : HandBrake 0.9.5 2011010300

Video
ID                               : 1
Format                           : AVC
Format/Info                      : Advanced Video Codec
Format profile                   : Main@L3.0
Format settings, CABAC           : Yes
Format settings, ReFrames        : 4 frames
Codec ID                         : avc1
Codec ID/Info                    : Advanced Video Coding
Duration                         : 1h 55mn
Bit rate mode                    : Variable
Bit rate                         : 914 Kbps
Width                            : 720 pixels
Height                           : 420 pixels
Display aspect ratio             : 16:9
Frame rate mode                  : Variable
Frame rate                       : 23.976 fps
Minimum frame rate               : 23.810 fps
Maximum frame rate               : 24.390 fps
Color space                      : YUV
Chroma subsampling               : 4:2:0
Bit depth                        : 8 bits
Scan type                        : Progressive
Bits/(Pixel*Frame)               : 0.126
Stream size                      : 752 MiB (81%)
Writing library                  : x264 core 112

Encoded date                     : UTC 2011-07-11 13:48:23
Tagged date                      : UTC 2011-07-11 15:23:55
Color primaries                  : BT.709-5, BT.1361, IEC 61966-2-4, SMPTE RP177
Transfer characteristics         : BT.709-5, BT.1361
Matrix coefficients              : BT.709-5, BT.1361, IEC 61966-2-4 709, SMPTE RP177

Audio #1
ID                               : 2
Format                           : AAC
Format/Info                      : Advanced Audio Codec
Format profile                   : LC
Codec ID                         : 40
Duration                         : 1h 53mn
Bit rate mode                    : Variable
Bit rate                         : 112 Kbps
Maximum bit rate                 : 183 Kbps
Channel(s)                       : 2 channels
Channel positions                : Front: L R
Sampling rate                    : 48.0 KHz
Compression mode                 : Lossy
Stream size                      : 90.8 MiB (10%)
Language                         : Hindi
Encoded date                     : UTC 2011-07-11 13:48:23
Tagged date                      : UTC 2011-07-11 15:23:54

Audio #2
ID                               : 3
Format                           : AAC
Format/Info                      : Advanced Audio Codec
Format profile                   : LC
Codec ID                         : 40
Duration                         : 1h 55mn
Bit rate mode                    : Variable
Bit rate                         : 96.0 Kbps
Maximum bit rate                 : 175 Kbps
Channel(s)                       : 2 channels
Channel positions                : Front: L R
Sampling rate                    : 48.0 KHz
Compression mode                 : Lossy
Stream size                      : 79.0 MiB (9%)
Language                         : English
Encoded date                     : UTC 2011-07-11 13:48:23
Tagged date                      : UTC 2011-07-11 15:23:54



This is quality upload. . . . . . . 

Because i am upload only quality torrent....




ENJOY................ *RoY StaR*